<svg xmlns="http://www.w3.org/2000/svg" xmlns:xlink="http://www.w3.org/1999/xlink" viewBox="0 0 24 24" fill="#FFFFFF">
  <path d="M10.6 15h2.8l-.2 1.8c0 .1-.1.2-.3.2h-1.9c-.1 0-.2-.1-.3-.2L10.6 15zM13.4 9h-2.8l.2-1.8c0-.1.1-.2.3-.2h1.9c.1 0 .2.1.3.2L13.4 9zM15.3 11.7l-1.4-2.4 1.6-.7c.1-.1.3 0 .3.1l.9 1.6c.1.1 0 .3-.1.3L15.3 11.7zM8.7 12.3l1.4 2.4-1.6.7c-.1.1-.3 0-.3-.1l-.9-1.6c-.1-.1 0-.3.1-.3L8.7 12.3zM10.1 9.3l-1.4 2.4-1.4-1.1c-.1-.1-.1-.2-.1-.3l.9-1.6c.1-.1.2-.2.3-.1L10.1 9.3zM13.9 14.7l1.4-2.4 1.4 1.1c.1.1.1.2.1.3l-.9 1.6c-.1.1-.2.2-.3.1L13.9 14.7z" fill="#FFFFFF" />
  <path d="M12 16c2.2 0 4-1.8 4-4s-1.8-4-4-4-4 1.8-4 4S9.8 16 12 16zM12 10c1.1 0 2 .9 2 2s-.9 2-2 2-2-.9-2-2S10.9 10 12 10zM16 16L21 21 21 16zM3 3L3 8 8 8z" fill="#FFFFFF" />
  <path d="M12 22C6.5 22 2 17.5 2 12h2c0 4.4 3.6 8 8 8 2.7 0 5.2-1.3 6.7-3.6l1.7 1.1C18.5 20.3 15.3 22 12 22zM22 12h-2c0-4.4-3.6-8-8-8C9.3 4 6.8 5.3 5.3 7.6L3.7 6.4C5.5 3.7 8.7 2 12 2 17.5 2 22 6.5 22 12z" fill="#FFFFFF" />
</svg>