<svg xmlns="http://www.w3.org/2000/svg" xmlns:xlink="http://www.w3.org/1999/xlink" viewBox="0 0 30 30" fill="#FFFFFF">
  <path d="M15 3 A 1 1 0 0 0 14 4 A 1 1 0 0 0 15 5 A 1 1 0 0 0 16 4 A 1 1 0 0 0 15 3 z M 12 3.8046875 A 1 1 0 0 0 11 4.8046875 A 1 1 0 0 0 12 5.8046875 A 1 1 0 0 0 13 4.8046875 A 1 1 0 0 0 12 3.8046875 z M 18 3.8046875 A 1 1 0 0 0 17 4.8046875 A 1 1 0 0 0 18 5.8046875 A 1 1 0 0 0 19 4.8046875 A 1 1 0 0 0 18 3.8046875 z M 9.8046875 6 A 1 1 0 0 0 8.8046875 7 A 1 1 0 0 0 9.8046875 8 A 1 1 0 0 0 10.804688 7 A 1 1 0 0 0 9.8046875 6 z M 20.195312 6 A 1 1 0 0 0 19.195312 7 A 1 1 0 0 0 20.195312 8 A 1 1 0 0 0 21.195312 7 A 1 1 0 0 0 20.195312 6 z M 15 7 A 3 3 0 0 0 12 10 A 3 3 0 0 0 15 13 A 3 3 0 0 0 18 10 A 3 3 0 0 0 15 7 z M 7 11 A 3 3 0 0 0 4 14 A 3 3 0 0 0 7 17 A 3 3 0 0 0 10 14 A 3 3 0 0 0 7 11 z M 23 11 A 3 3 0 0 0 20 14 A 3 3 0 0 0 23 17 A 3 3 0 0 0 26 14 A 3 3 0 0 0 23 11 z M 14 15C12.343 15 11 16.343 11 18L11 22C11 20.343 9.657 19 8 19L6 19C4.343 19 3 20.343 3 22L3 26L11 26L19 26L27 26L27 22C27 20.343 25.657 19 24 19L22 19C20.343 19 19 20.343 19 22L19 18C19 16.343 17.657 15 16 15L14 15 z" fill="#FFFFFF" />
</svg>