<svg xmlns="http://www.w3.org/2000/svg" xmlns:xlink="http://www.w3.org/1999/xlink" viewBox="0 0 32 32" fill="#FFFFFF">
  <path d="M13.1875 3L13.03125 3.8125L12.4375 6.78125C11.484375 7.15625 10.625 7.683594 9.84375 8.3125L6.9375 7.3125L6.15625 7.0625L5.75 7.78125L3.75 11.21875L3.34375 11.9375L3.9375 12.46875L6.1875 14.4375C6.105469 14.949219 6 15.460938 6 16C6 16.539063 6.105469 17.050781 6.1875 17.5625L3.9375 19.53125L3.34375 20.0625L3.75 20.78125L5.75 24.21875L6.15625 24.9375L6.9375 24.6875L9.84375 23.6875C10.625 24.316406 11.484375 24.84375 12.4375 25.21875L13.03125 28.1875L13.1875 29L18.8125 29L18.96875 28.1875L19.5625 25.21875C20.515625 24.84375 21.375 24.316406 22.15625 23.6875L25.0625 24.6875L25.84375 24.9375L26.25 24.21875L28.25 20.78125L28.65625 20.0625L28.0625 19.53125L25.8125 17.5625C25.894531 17.050781 26 16.539063 26 16C26 15.460938 25.894531 14.949219 25.8125 14.4375L28.0625 12.46875L28.65625 11.9375L28.25 11.21875L26.25 7.78125L25.84375 7.0625L25.0625 7.3125L22.15625 8.3125C21.375 7.683594 20.515625 7.15625 19.5625 6.78125L18.96875 3.8125L18.8125 3 Z M 14.8125 5L17.1875 5L17.6875 7.59375L17.8125 8.1875L18.375 8.375C19.511719 8.730469 20.542969 9.332031 21.40625 10.125L21.84375 10.53125L22.40625 10.34375L24.9375 9.46875L26.125 11.5L24.125 13.28125L23.65625 13.65625L23.8125 14.25C23.941406 14.820313 24 15.402344 24 16C24 16.597656 23.941406 17.179688 23.8125 17.75L23.6875 18.34375L24.125 18.71875L26.125 20.5L24.9375 22.53125L22.40625 21.65625L21.84375 21.46875L21.40625 21.875C20.542969 22.667969 19.511719 23.269531 18.375 23.625L17.8125 23.8125L17.6875 24.40625L17.1875 27L14.8125 27L14.3125 24.40625L14.1875 23.8125L13.625 23.625C12.488281 23.269531 11.457031 22.667969 10.59375 21.875L10.15625 21.46875L9.59375 21.65625L7.0625 22.53125L5.875 20.5L7.875 18.71875L8.34375 18.34375L8.1875 17.75C8.058594 17.179688 8 16.597656 8 16C8 15.402344 8.058594 14.820313 8.1875 14.25L8.34375 13.65625L7.875 13.28125L5.875 11.5L7.0625 9.46875L9.59375 10.34375L10.15625 10.53125L10.59375 10.125C11.457031 9.332031 12.488281 8.730469 13.625 8.375L14.1875 8.1875L14.3125 7.59375 Z M 16 11C13.25 11 11 13.25 11 16C11 18.75 13.25 21 16 21C18.75 21 21 18.75 21 16C21 13.25 18.75 11 16 11 Z M 16 13C17.667969 13 19 14.332031 19 16C19 17.667969 17.667969 19 16 19C14.332031 19 13 17.667969 13 16C13 14.332031 14.332031 13 16 13Z" fill="#FFFFFF" />
</svg>